#!OML:ASF X:\für Bonn\!DataBase\2005_08_12_Daniel\c3d\Daniel.ASF
:FULLY-SPECIFIED
:DEGREES
66
root 12.3168 12.2281 -3.24358 -734.047 -62.5908 -6.99929
lowerback 70.2963 2.35322 -1.72356
upperback 11.1178 -2.35248 -4.91736
thorax -9.00674 -1.73846 -3.73737
lowerneck 1.81931 3.92189 -4.89073
upperneck 4.56006 5.28719 -7.06906
head 1.18315 2.42283 -1.35809
rclavicle -4.77083e-014 1.27222e-014
rhumerus -13.0402 20.2629 -77.5006
rradius 39.6631
rwrist 8.70648
rhand -13.9953 -341.589
rfingers 7.12502
rthumb 12.1337 -371.217
lclavicle -4.77083e-014 1.27222e-014
lhumerus -367.594 9.19689 -291.86
lradius 37.8479
lwrist -11.015
lhand -20.4593 350.537
lfingers 7.12502
lthumb 5.89636 380.435
rfemur -30.4253 -23.6469 13.0642
rtibia 107.505
rfoot -12.846 38.721
rtoes 21.911
lfemur -57.662 1.80552 -9.07462
ltibia 90.3054
lfoot -9.63118 -20.8282
ltoes -1.5896
67
root 12.3042 12.0588 -3.1775 -734.236 -62.7806 -7.41221
lowerback 70.6799 2.37988 -1.70676
upperback 11.2695 -2.39907 -4.97484
thorax -8.81259 -1.77616 -3.79843
lowerneck 2.01174 3.88403 -5.00824
upperneck 4.42488 5.20462 -6.92153
head 1.09871 2.39152 -1.29698
rclavicle -2.54444e-014 -6.20208e-014
rhumerus -13.0084 20.0837 -77.4481
rradius 39.7335
rwrist 8.77607
rhand -14.0366 -341.568
rfingers 7.12502
rthumb 12.0938 -371.199
lclavicle -2.54444e-014 -6.20208e-014
lhumerus -367.135 9.85133 -292.118
lradius 37.2893
lwrist -11.1474
lhand -20.6931 350.599
lfingers 7.12502
lthumb 5.67062 380.503
rfemur -30.3581 -24.4174 11.9096
rtibia 109.149
rfoot -12.0631 39.9034
rtoes 22.1222
lfemur -58.3496 2.18411 -8.99484
ltibia 92.1817
lfoot -10.0621 -21.2295
ltoes -1.16505
68
root 12.2893 11.8882 -3.11292 -734.39 -62.9784 -7.82591
lowerback 70.9618 2.4369 -1.7073
upperback 11.4297 -2.41292 -5.01524
thorax -8.6098 -1.80086 -3.84571
lowerneck 2.23445 3.83024 -5.123
upperneck 4.31562 5.09978 -6.77763
head 1.01795 2.34814 -1.23811
rclavicle 3.65764e-014 3.65764e-014
rhumerus -13.0111 19.8664 -77.3774
rradius 39.7775
rwrist 8.78599
rhand -14.0428 -341.456
rfingers 7.12502
rthumb 12.0879 -371.087
lclavicle 3.65764e-014 3.65764e-014
lhumerus -366.728 10.5237 -292.336
lradius 36.7274
lwrist -11.281
lhand -20.953 350.712
lfingers 7.12502
lthumb 5.41968 380.623
rfemur -30.2904 -25.2145 10.6951
rtibia 110.781
rfoot -11.2061 41.1327
rtoes 22.3501
lfemur -59.088 2.59312 -8.9002
ltibia 94.0528
lfoot -10.4981 -21.6185
ltoes -0.848796
69
root 12.2726 11.7162 -3.04897 -734.559 -63.1605 -8.2424
lowerback 71.2128 2.47439 -1.70773
upperback 11.5989 -2.44884 -5.07189
thorax -8.40094 -1.83417 -3.90148
lowerneck 2.44271 3.79952 -5.2831
upperneck 4.20271 5.02429 -6.5721
head 0.936378 2.31909 -1.15237
rclavicle -2.38542e-014 -3.97569e-014
rhumerus -13.0581 19.6919 -77.3354
rradius 39.8809
rwrist 8.68912
rhand -14.0051 -341.451
rfingers 7.12502
rthumb 12.1242 -371.08
lclavicle -2.38542e-014 -3.97569e-014
lhumerus -366.389 11.2766 -292.579
lradius 36.1866
lwrist -11.4266
lhand -21.2203 350.821
lfingers 7.12502
lthumb 5.16163 380.738
rfemur -30.1216 -26.059 9.3554
rtibia 112.388
rfoot -10.3334 42.4165
rtoes 22.5399
lfemur -59.8031 3.01212 -8.81556
ltibia 95.9002
lfoot -10.934 -22.0093
ltoes -0.481224
70
root 12.2558 11.5415 -2.98619 -734.718 -63.334 -8.6735
lowerback 71.446 2.50372 -1.69451
upperback 11.7723 -2.48323 -5.13211
thorax -8.18882 -1.8663 -3.96756
lowerneck 2.51995 3.7609 -5.43206
upperneck 4.2011 4.95751 -6.38341
head 0.912843 2.28662 -1.07079
rclavicle -4.77083e-015 1.74931e-014
rhumerus -13.1225 19.5311 -77.2952
rradius 39.9903
rwrist 8.58373
rhand -14.0341 -341.42
rfingers 7.12502
rthumb 12.0963 -371.05
lclavicle -4.77083e-015 1.74931e-014
lhumerus -366.067 12.0465 -292.811
lradius 35.6202
lwrist -11.6403
lhand -21.5659 350.918
lfingers 7.12502
lthumb 4.82795 380.843
rfemur -29.9022 -26.964 7.90526
rtibia 113.994
rfoot -9.47254 43.7357
rtoes 22.6518
lfemur -60.5483 3.4414 -8.72307
ltibia 97.7387
lfoot -11.3574 -22.3715
ltoes -0.131529
71
root 12.2386 11.3675 -2.92509 -734.882 -63.5073 -9.09042
lowerback 71.6803 2.54496 -1.70279
upperback 11.9148 -2.51547 -5.17935
thorax -8.01028 -1.89773 -4.01091
lowerneck 2.54913 3.73082 -5.65101
upperneck 4.23203 4.90571 -6.15573
head 0.904972 2.25847 -0.964978
rclavicle 9.54166e-015 -2.06736e-014
rhumerus -13.2261 19.3591 -77.2475
rradius 40.078
rwrist 8.52297
rhand -14.0376 -341.347
rfingers 7.12502
rthumb 12.0929 -370.977
lclavicle 9.54166e-015 -2.06736e-014
lhumerus -365.802 12.8263 -293.027
lradius 35.0487
lwrist -11.8477
lhand -21.8952 350.994
lfingers 7.12502
lthumb 4.50996 380.926
rfemur -29.62 -27.8915 6.34291
rtibia 115.568
rfoot -8.57381 45.09
rtoes 22.8028
lfemur -61.2909 3.89482 -8.6387
ltibia 99.5476
lfoot -11.7932 -22.7263
ltoes 0.164153
72
root 12.2193 11.192 -2.86548 -735.085 -63.6657 -9.50233
lowerback 71.9531 2.57756 -1.69811
upperback 12.0421 -2.55501 -5.24895
thorax -7.8492 -1.92961 -4.0832
lowerneck 2.45192 3.69251 -5.80915
upperneck 4.37694 4.86283 -5.90495
head 0.954725 2.22882 -0.859051
rclavicle -3.02153e-014 -2.22639e-014
rhumerus -13.346 19.1502 -77.2348
rradius 40.146
rwrist 8.4641
rhand -14.0281 -341.314
rfingers 7.12502
rthumb 12.102 -370.944
lclavicle -3.02153e-014 -2.22639e-014
lhumerus -365.57 13.5697 -293.284
lradius 34.4885
lwrist -12.0794
lhand -22.2081 351.103
lfingers 7.12502
lthumb 4.20779 381.041
rfemur -29.1792 -28.9093 4.55961
rtibia 117.126
rfoot -7.652 46.5478
rtoes 22.9905
lfemur -61.9849 4.33558 -8.54877
ltibia 101.33
lfoot -12.2025 -23.0477
ltoes 0.463734
73
root 12.1992 11.0178 -2.80695 -735.256 -63.8312 -9.92922
lowerback 72.1961 2.60896 -1.69226
upperback 12.1624 -2.59457 -5.33324
thorax -7.6996 -1.95944 -4.17243
lowerneck 2.22977 3.65174 -5.91608
upperneck 4.60759 4.8349 -5.67386
head 1.05431 2.20165 -0.76473
rclavicle 1.59028e-014 -6.36111e-014
rhumerus -13.4845 18.9008 -77.2729
rradius 40.2189
rwrist 8.43398
rhand -14.0281 -341.286
rfingers 7.12502
rthumb 12.102 -370.916
lclavicle 1.59028e-014 -6.36111e-014
lhumerus -365.353 14.2817 -293.576
lradius 33.8804
lwrist -12.3241
lhand -22.5597 351.163
lfingers 7.12502
lthumb 3.86828 381.108
rfemur -28.6747 -29.9513 2.66707
rtibia 118.649
rfoot -6.67808 48.0407
rtoes 23.0908
lfemur -62.699 4.81108 -8.45132
ltibia 103.098
lfoot -12.641 -23.3482
ltoes 0.647779
74
root 12.1783 10.8445 -2.75029 -735.424 -63.9941 -10.4013
lowerback 72.4852 2.65016 -1.68973
upperback 12.2523 -2.6272 -5.40458
thorax -7.57968 -1.98706 -4.24942
lowerneck 1.96127 3.61875 -5.99813
upperneck 4.90016 4.8253 -5.45815
head 1.1829 2.18061 -0.677843
rclavicle 1.11319e-014 -5.88403e-014
rhumerus -13.671 18.7271 -77.2905
rradius 40.3378
rwrist 8.32802
rhand -14.0175 -341.252
rfingers 7.12502
rthumb 12.1122 -370.881
lclavicle 1.11319e-014 -5.88403e-014
lhumerus -365.215 14.995 -293.88
lradius 33.296
lwrist -12.5784
lhand -22.8356 351.165
lfingers 7.12502
lthumb 3.60187 381.114
rfemur -28.0049 -31.0133 0.595691
rtibia 120.133
rfoot -5.70663 49.5796
rtoes 23.1671
lfemur -63.3645 5.31543 -8.328
ltibia 104.835
lfoot -13.1253 -23.651
ltoes 0.737952
75
root 12.1567 10.6726 -2.69432 -735.666 -64.1467 -10.7865
lowerback 72.7236 2.71781 -1.73487
upperback 12.3491 -2.65996 -5.46912
thorax -7.45256 -2.01642 -4.29856
lowerneck 1.76988 3.58834 -6.04925
upperneck 5.13564 4.80936 -5.27913
head 1.28312 2.16057 -0.609051
rclavicle -8.74653e-014 -6.52014e-014
rhumerus -13.8695 18.5826 -77.3184
rradius 40.4469
rwrist 8.23647
rhand -14.0167 -341.268
rfingers 7.12502
rthumb 12.113 -370.897
lclavicle -8.74653e-014 -6.52014e-014
lhumerus -365.13 15.7341 -294.18
lradius 32.6866
lwrist -12.9259
lhand -23.0843 351.13
lfingers 7.12502
lthumb 3.36173 381.083
rfemur -27.2057 -32.1218 -1.74105
rtibia 121.595
rfoot -4.74151 51.2361
rtoes 23.1786
lfemur -64.0067 5.80839 -8.247
ltibia 106.54
lfoot -13.6136 -23.9122
ltoes 0.75305
